<svg xmlns="http://www.w3.org/2000/svg" viewBox="0 0 1000 500" width="1000" height="500" style="background:#0B0F19; font-family:-apple-system, BlinkMacSystemFont, 'Segoe UI', Roboto, Helvetica, Arial, sans-serif;">
  <defs>
    <!-- Background Gradients -->
    <linearGradient id="bg-grad" x1="0%" y1="0%" x2="100%" y2="100%">
      <stop offset="0%" stop-color="#0B0F19"/>
      <stop offset="50%" stop-color="#0E1424"/>
      <stop offset="100%" stop-color="#111827"/>
    </linearGradient>
    <radialGradient id="ambient-cyan" cx="25%" cy="30%" r="60%">
      <stop offset="0%" stop-color="#06B6D4" stop-opacity="0.12"/>
      <stop offset="100%" stop-color="#06B6D4" stop-opacity="0"/>
    </radialGradient>
    <radialGradient id="ambient-purple" cx="75%" cy="40%" r="60%">
      <stop offset="0%" stop-color="#8B5CF6" stop-opacity="0.14"/>
      <stop offset="100%" stop-color="#8B5CF6" stop-opacity="0"/>
    </radialGradient>

    <!-- Card Border Gradients -->
    <linearGradient id="card-border-1" x1="0%" y1="0%" x2="100%" y2="100%">
      <stop offset="0%" stop-color="#38BDF8" stop-opacity="0.7"/>
      <stop offset="100%" stop-color="#1E293B" stop-opacity="0.4"/>
    </linearGradient>
    <linearGradient id="card-border-2" x1="0%" y1="0%" x2="100%" y2="100%">
      <stop offset="0%" stop-color="#818CF8" stop-opacity="0.7"/>
      <stop offset="100%" stop-color="#1E293B" stop-opacity="0.4"/>
    </linearGradient>
    <linearGradient id="card-border-3" x1="0%" y1="0%" x2="100%" y2="100%">
      <stop offset="0%" stop-color="#C084FC" stop-opacity="0.7"/>
      <stop offset="100%" stop-color="#1E293B" stop-opacity="0.4"/>
    </linearGradient>
    <linearGradient id="card-border-4" x1="0%" y1="0%" x2="100%" y2="100%">
      <stop offset="0%" stop-color="#34D399" stop-opacity="0.8"/>
      <stop offset="100%" stop-color="#1E293B" stop-opacity="0.4"/>
    </linearGradient>

    <!-- Arrow Connection Gradients -->
    <linearGradient id="arrow-1-grad" x1="0%" y1="0%" x2="100%" y2="0%">
      <stop offset="0%" stop-color="#38BDF8"/>
      <stop offset="100%" stop-color="#818CF8"/>
    </linearGradient>
    <linearGradient id="arrow-2-grad" x1="0%" y1="0%" x2="100%" y2="0%">
      <stop offset="0%" stop-color="#818CF8"/>
      <stop offset="100%" stop-color="#C084FC"/>
    </linearGradient>
    <linearGradient id="arrow-3-grad" x1="0%" y1="0%" x2="100%" y2="0%">
      <stop offset="0%" stop-color="#C084FC"/>
      <stop offset="100%" stop-color="#34D399"/>
    </linearGradient>

    <!-- Glow Filters -->
    <filter id="glow-cyan" x="-20%" y="-20%" width="140%" height="140%">
      <feGaussianBlur stdDeviation="3" result="blur"/>
      <feMerge>
        <feMergeNode in="blur"/>
        <feMergeNode in="SourceGraphic"/>
      </feMerge>
    </filter>
    <filter id="glow-purple" x="-20%" y="-20%" width="140%" height="140%">
      <feGaussianBlur stdDeviation="3" result="blur"/>
      <feMerge>
        <feMergeNode in="blur"/>
        <feMergeNode in="SourceGraphic"/>
      </feMerge>
    </filter>
    <filter id="glow-emerald" x="-20%" y="-20%" width="140%" height="140%">
      <feGaussianBlur stdDeviation="3" result="blur"/>
      <feMerge>
        <feMergeNode in="blur"/>
        <feMergeNode in="SourceGraphic"/>
      </feMerge>
    </filter>

    <!-- Arrow Markers -->
    <marker id="marker-cyan" markerWidth="7" markerHeight="7" refX="5" refY="3.5" orient="auto">
      <polygon points="0 1, 6 3.5, 0 6" fill="#818CF8" />
    </marker>
    <marker id="marker-purple" markerWidth="7" markerHeight="7" refX="5" refY="3.5" orient="auto">
      <polygon points="0 1, 6 3.5, 0 6" fill="#C084FC" />
    </marker>
    <marker id="marker-emerald" markerWidth="7" markerHeight="7" refX="5" refY="3.5" orient="auto">
      <polygon points="0 1, 6 3.5, 0 6" fill="#34D399" />
    </marker>

    <!-- Grid Pattern -->
    <pattern id="grid" width="24" height="24" patternUnits="userSpaceOnUse">
      <path d="M 24 0 L 0 0 0 24" fill="none" stroke="#334155" stroke-width="0.5" stroke-opacity="0.25"/>
    </pattern>
  </defs>

  <!-- Base Background -->
  <rect width="1000" height="500" rx="14" fill="url(#bg-grad)"/>
  <rect width="1000" height="500" rx="14" fill="url(#grid)"/>
  <rect width="1000" height="500" rx="14" fill="url(#ambient-cyan)"/>
  <rect width="1000" height="500" rx="14" fill="url(#ambient-purple)"/>

  <!-- Outer Border Frame -->
  <rect x="1" y="1" width="998" height="498" rx="13" fill="none" stroke="#1E293B" stroke-width="1.5" stroke-opacity="0.8"/>

  <!-- ================= TOP HEADER BAR ================= -->
  <g id="header">
    <!-- Brand Tag / Pill -->
    <rect x="26" y="24" width="96" height="22" rx="11" fill="#1E293B" stroke="#38BDF8" stroke-width="1" stroke-opacity="0.5"/>
    <circle cx="37" cy="35" r="4" fill="#38BDF8" filter="url(#glow-cyan)"/>
    <text x="47" y="39" fill="#38BDF8" font-size="10.5" font-weight="700" letter-spacing="1">PIPELINE</text>

    <!-- Main Title -->
    <text x="130" y="41" fill="#F8FAFC" font-size="18" font-weight="800" letter-spacing="0.5">CamScanner PDF Architecture</text>
    <text x="430" y="41" fill="#64748B" font-size="13" font-weight="500">|</text>
    <text x="444" y="41" fill="#94A3B8" font-size="13" font-weight="500">Autonomous Image Dewarping, Restoration &amp; HD PDF Generation</text>

    <!-- Top-Right Badges -->
    <rect x="836" y="24" width="138" height="24" rx="6" fill="#111827" stroke="#34D399" stroke-width="1" stroke-opacity="0.4"/>
    <circle cx="848" cy="36" r="3.5" fill="#34D399" filter="url(#glow-emerald)"/>
    <text x="858" y="40" fill="#E2E8F0" font-size="10.5" font-weight="600">Local-First • Zero Cloud</text>
  </g>

  <!-- ================= FLOW BOX 1: INPUT IMAGES ================= -->
  <g id="box-1" transform="translate(26, 75)">
    <!-- Box Background -->
    <rect width="200" height="375" rx="14" fill="#0F172A" fill-opacity="0.9" stroke="url(#card-border-1)" stroke-width="1.3"/>
    
    <!-- Top Step Badge & Number -->
    <rect x="14" y="14" width="30" height="20" rx="5" fill="#0284C7" fill-opacity="0.2" stroke="#38BDF8" stroke-width="1"/>
    <text x="22" y="28" fill="#38BDF8" font-size="10.5" font-weight="800">01</text>
    <text x="52" y="28" fill="#38BDF8" font-size="11" font-weight="700" letter-spacing="0.8">INGESTION</text>

    <!-- Card Title -->
    <text x="14" y="58" fill="#F1F5F9" font-size="15" font-weight="700">Input Images</text>
    <text x="14" y="74" fill="#38BDF8" font-size="11.5" font-weight="600">(JPG / PNG / WebP)</text>

    <!-- Format Chips -->
    <g transform="translate(14, 88)">
      <rect x="0" y="0" width="50" height="20" rx="4" fill="#1E293B" stroke="#475569" stroke-width="0.8"/>
      <text x="12" y="14" fill="#E2E8F0" font-size="10" font-weight="600">.JPG</text>
      <rect x="56" y="0" width="52" height="20" rx="4" fill="#1E293B" stroke="#475569" stroke-width="0.8"/>
      <text x="67" y="14" fill="#E2E8F0" font-size="10" font-weight="600">.PNG</text>
      <rect x="114" y="0" width="58" height="20" rx="4" fill="#1E293B" stroke="#475569" stroke-width="0.8"/>
      <text x="123" y="14" fill="#E2E8F0" font-size="10" font-weight="600">.WebP</text>
    </g>

    <!-- Divider -->
    <line x1="14" y1="122" x2="186" y2="122" stroke="#334155" stroke-width="1" stroke-dasharray="3 3"/>

    <!-- Input Scenario Challenges -->
    <text x="14" y="142" fill="#94A3B8" font-size="11" font-weight="600" letter-spacing="0.5">RAW DEFECT HANDLING</text>

    <!-- Challenge Item 1 -->
    <g transform="translate(14, 154)">
      <rect width="172" height="42" rx="7" fill="#1E293B" fill-opacity="0.6" stroke="#334155" stroke-width="0.8"/>
      <circle cx="16" cy="21" r="7" fill="#EF4444" fill-opacity="0.15"/>
      <!-- Camera Lens Icon -->
      <path d="M12 21 a4 4 0 1 0 8 0 a4 4 0 1 0 -8 0" stroke="#F87171" stroke-width="1.2" fill="none"/>
      <text x="30" y="17" fill="#F1F5F9" font-size="11" font-weight="600">Mobile Camera Shots</text>
      <text x="30" y="31" fill="#94A3B8" font-size="9.5">Handheld tilt &amp; motion blur</text>
    </g>

    <!-- Challenge Item 2 -->
    <g transform="translate(14, 204)">
      <rect width="172" height="42" rx="7" fill="#1E293B" fill-opacity="0.6" stroke="#334155" stroke-width="0.8"/>
      <circle cx="16" cy="21" r="7" fill="#F59E0B" fill-opacity="0.15"/>
      <!-- Sun/Shadow Icon -->
      <path d="M16 16 L16 26 M11 21 L21 21" stroke="#FBBF24" stroke-width="1.2"/>
      <text x="30" y="17" fill="#F1F5F9" font-size="11" font-weight="600">Uneven Shadows</text>
      <text x="30" y="31" fill="#94A3B8" font-size="9.5">Fingers, desk &amp; ambient glare</text>
    </g>

    <!-- Challenge Item 3 -->
    <g transform="translate(14, 254)">
      <rect width="172" height="42" rx="7" fill="#1E293B" fill-opacity="0.6" stroke="#334155" stroke-width="0.8"/>
      <circle cx="16" cy="21" r="7" fill="#8B5CF6" fill-opacity="0.15"/>
      <!-- Perspective Skew Icon -->
      <path d="M12 24 L15 17 L21 18 L19 25 Z" stroke="#A78BFA" stroke-width="1.2" fill="none"/>
      <text x="30" y="17" fill="#F1F5F9" font-size="11" font-weight="600">Skewed &amp; Warped Pages</text>
      <text x="30" y="31" fill="#94A3B8" font-size="9.5">Keystone distortion &amp; fold</text>
    </g>

    <!-- Bottom Status Pill -->
    <rect x="14" y="314" width="172" height="44" rx="8" fill="#0369A1" fill-opacity="0.15" stroke="#0284C7" stroke-width="0.8"/>
    <text x="24" y="331" fill="#38BDF8" font-size="10.5" font-weight="700">✓ Multi-Image Queue</text>
    <text x="24" y="347" fill="#BAE6FD" font-size="9.5">Drag-and-drop batch upload</text>
  </g>

  <!-- ================= ARROW 1: INGESTION -> ENGINE ================= -->
  <g id="arrow-1">
    <path d="M 226 230 L 256 230" stroke="url(#arrow-1-grad)" stroke-width="2.5" fill="none" marker-end="url(#marker-cyan)"/>
    <circle cx="241" cy="230" r="3" fill="#38BDF8" filter="url(#glow-cyan)"/>
    <rect x="225" y="202" width="32" height="15" rx="4" fill="#0F172A" stroke="#334155" stroke-width="0.8"/>
    <text x="230" y="213" fill="#94A3B8" font-size="8" font-weight="700">RAW</text>
  </g>

  <!-- ================= FLOW BOX 2: PROCESSING ENGINE ================= -->
  <g id="box-2" transform="translate(256, 75)">
    <!-- Box Background -->
    <rect width="226" height="375" rx="14" fill="#0F172A" fill-opacity="0.9" stroke="url(#card-border-2)" stroke-width="1.3"/>

    <!-- Step Badge & Number -->
    <rect x="14" y="14" width="30" height="20" rx="5" fill="#4338CA" fill-opacity="0.25" stroke="#818CF8" stroke-width="1"/>
    <text x="21" y="28" fill="#818CF8" font-size="10.5" font-weight="800">02</text>
    <text x="52" y="28" fill="#818CF8" font-size="11" font-weight="700" letter-spacing="0.8">CORE ENGINE</text>

    <!-- Card Title -->
    <text x="14" y="58" fill="#F1F5F9" font-size="15" font-weight="700">Processing Engine</text>
    <text x="14" y="74" fill="#818CF8" font-size="11.5" font-weight="600">Dual Execution Architecture</text>

    <!-- Route A: Local OpenCV / NumPy -->
    <g transform="translate(12, 88)">
      <rect width="202" height="114" rx="9" fill="#1E1B4B" fill-opacity="0.5" stroke="#6366F1" stroke-width="1"/>
      <rect x="10" y="8" width="80" height="18" rx="4" fill="#4F46E5" fill-opacity="0.3"/>
      <text x="15" y="21" fill="#A5B4FC" font-size="9.5" font-weight="800">PRIMARY ROUTE</text>
      <text x="10" y="44" fill="#FFFFFF" font-size="12.5" font-weight="700">Local OpenCV &amp; NumPy</text>
      
      <!-- Bullet 1 -->
      <circle cx="16" cy="62" r="2.5" fill="#818CF8"/>
      <text x="24" y="65" fill="#CBD5E1" font-size="10">Edge &amp; Contour Detection (Canny)</text>
      <!-- Bullet 2 -->
      <circle cx="16" cy="79" r="2.5" fill="#818CF8"/>
      <text x="24" y="82" fill="#CBD5E1" font-size="10">4-Point Perspective Transform</text>
      <!-- Bullet 3 -->
      <circle cx="16" cy="96" r="2.5" fill="#818CF8"/>
      <text x="24" y="99" fill="#38BDF8" font-size="9.5" font-weight="600">⚡ 0ms Network • 100% In-Memory</text>
    </g>

    <!-- OR Connector Badge -->
    <g transform="translate(93, 208)">
      <rect x="0" y="0" width="40" height="18" rx="9" fill="#0B0F19" stroke="#64748B" stroke-width="1"/>
      <text x="12" y="13" fill="#E2E8F0" font-size="9.5" font-weight="800">OR</text>
    </g>

    <!-- Route B: Remote CamScanner MCP -->
    <g transform="translate(12, 232)">
      <rect width="202" height="126" rx="9" fill="#1E293B" fill-opacity="0.6" stroke="#475569" stroke-width="0.9"/>
      <rect x="10" y="8" width="86" height="18" rx="4" fill="#334155"/>
      <text x="15" y="21" fill="#94A3B8" font-size="9.5" font-weight="800">OPTIONAL CLOUD</text>
      <text x="10" y="44" fill="#F1F5F9" font-size="12.5" font-weight="700">CamScanner MCP OAuth</text>

      <!-- Bullet 1 -->
      <circle cx="16" cy="62" r="2.5" fill="#94A3B8"/>
      <text x="24" y="65" fill="#CBD5E1" font-size="10">Remote MCP Bridge Protocol</text>
      <!-- Bullet 2 -->
      <circle cx="16" cy="79" r="2.5" fill="#94A3B8"/>
      <text x="24" y="82" fill="#CBD5E1" font-size="10">Enterprise Server-Side Dewarp</text>
      <!-- Bullet 3 -->
      <circle cx="16" cy="96" r="2.5" fill="#94A3B8"/>
      <text x="24" y="99" fill="#CBD5E1" font-size="10">OAuth 2.0 Token Handshake</text>
      
      <!-- Safe fallback badge -->
      <rect x="10" y="106" width="182" height="14" rx="3" fill="#334155" fill-opacity="0.5"/>
      <text x="22" y="117" fill="#A5B4FC" font-size="8.5" font-weight="600">Auto-fallback to Local if offline</text>
    </g>
  </g>

  <!-- ================= ARROW 2: ENGINE -> FILTER ================= -->
  <g id="arrow-2">
    <path d="M 482 230 L 512 230" stroke="url(#arrow-2-grad)" stroke-width="2.5" fill="none" marker-end="url(#marker-purple)"/>
    <circle cx="497" cy="230" r="3" fill="#818CF8" filter="url(#glow-purple)"/>
    <rect x="483" y="202" width="28" height="15" rx="4" fill="#0F172A" stroke="#334155" stroke-width="0.8"/>
    <text x="487" y="213" fill="#C084FC" font-size="8" font-weight="700">FLAT</text>
  </g>

  <!-- ================= FLOW BOX 3: MAGIC COLOR FILTER ================= -->
  <g id="box-3" transform="translate(512, 75)">
    <!-- Box Background -->
    <rect width="232" height="375" rx="14" fill="#0F172A" fill-opacity="0.9" stroke="url(#card-border-3)" stroke-width="1.3"/>

    <!-- Step Badge & Number -->
    <rect x="14" y="14" width="30" height="20" rx="5" fill="#7E22CE" fill-opacity="0.25" stroke="#C084FC" stroke-width="1"/>
    <text x="21" y="28" fill="#C084FC" font-size="10.5" font-weight="800">03</text>
    <text x="52" y="28" fill="#C084FC" font-size="11" font-weight="700" letter-spacing="0.8">ENHANCEMENT</text>

    <!-- Card Title -->
    <text x="14" y="58" fill="#F1F5F9" font-size="15" font-weight="700">Magic Color Filter</text>
    <text x="14" y="74" fill="#C084FC" font-size="11.5" font-weight="600">5-Stage Adaptive Restoration</text>

    <!-- 5 Processing Steps Stack -->
    <!-- Step 1 -->
    <g transform="translate(12, 88)">
      <rect width="208" height="46" rx="7" fill="#1E293B" fill-opacity="0.7" stroke="#334155" stroke-width="0.8"/>
      <rect x="8" y="8" width="18" height="16" rx="3" fill="#A855F7" fill-opacity="0.2"/>
      <text x="14" y="20" fill="#C084FC" font-size="10" font-weight="800">1</text>
      <text x="32" y="20" fill="#F8FAFC" font-size="11" font-weight="700">Illumination Estimation</text>
      <text x="32" y="35" fill="#94A3B8" font-size="9.5">Morphological 2D surface background</text>
    </g>

    <!-- Step 2 -->
    <g transform="translate(12, 140)">
      <rect width="208" height="46" rx="7" fill="#1E293B" fill-opacity="0.7" stroke="#334155" stroke-width="0.8"/>
      <rect x="8" y="8" width="18" height="16" rx="3" fill="#A855F7" fill-opacity="0.2"/>
      <text x="13" y="20" fill="#C084FC" font-size="10" font-weight="800">2</text>
      <text x="32" y="20" fill="#F8FAFC" font-size="11" font-weight="700">Shadow Removal</text>
      <text x="32" y="35" fill="#94A3B8" font-size="9.5">Division normalization / flat field</text>
    </g>

    <!-- Step 3 -->
    <g transform="translate(12, 192)">
      <rect width="208" height="46" rx="7" fill="#1E293B" fill-opacity="0.7" stroke="#334155" stroke-width="0.8"/>
      <rect x="8" y="8" width="18" height="16" rx="3" fill="#A855F7" fill-opacity="0.2"/>
      <text x="13" y="20" fill="#C084FC" font-size="10" font-weight="800">3</text>
      <text x="32" y="20" fill="#F8FAFC" font-size="11" font-weight="700">Paper Whitening</text>
      <text x="32" y="35" fill="#94A3B8" font-size="9.5">Dynamic range white balancing</text>
    </g>

    <!-- Step 4 -->
    <g transform="translate(12, 244)">
      <rect width="208" height="46" rx="7" fill="#1E293B" fill-opacity="0.7" stroke="#334155" stroke-width="0.8"/>
      <rect x="8" y="8" width="18" height="16" rx="3" fill="#A855F7" fill-opacity="0.2"/>
      <text x="13" y="20" fill="#C084FC" font-size="10" font-weight="800">4</text>
      <text x="32" y="20" fill="#F8FAFC" font-size="11" font-weight="700">Ink Deepening</text>
      <text x="32" y="35" fill="#94A3B8" font-size="9.5">Nonlinear contrast &amp; text boost</text>
    </g>

    <!-- Step 5 -->
    <g transform="translate(12, 296)">
      <rect width="208" height="46" rx="7" fill="#2E1065" fill-opacity="0.6" stroke="#A855F7" stroke-width="1"/>
      <rect x="8" y="8" width="18" height="16" rx="3" fill="#A855F7" fill-opacity="0.3"/>
      <text x="13" y="20" fill="#E9D5FF" font-size="10" font-weight="800">5</text>
      <text x="32" y="20" fill="#F3E8FF" font-size="11" font-weight="700">Unsharp Mask</text>
      <text x="32" y="35" fill="#D8B4FE" font-size="9.5">High-frequency edge crisping</text>
    </g>

    <!-- Bottom summary micro badge -->
    <text x="28" y="360" fill="#A855F7" font-size="10" font-weight="600">✦ Crisp Laser-Scan Appearance</text>
  </g>

  <!-- ================= ARROW 3: FILTER -> OUTPUT ================= -->
  <g id="arrow-3">
    <path d="M 744 230 L 774 230" stroke="url(#arrow-3-grad)" stroke-width="2.5" fill="none" marker-end="url(#marker-emerald)"/>
    <circle cx="759" cy="230" r="3" fill="#34D399" filter="url(#glow-emerald)"/>
    <rect x="745" y="202" width="28" height="15" rx="4" fill="#0F172A" stroke="#334155" stroke-width="0.8"/>
    <text x="748" y="213" fill="#34D399" font-size="8" font-weight="700">HD</text>
  </g>

  <!-- ================= FLOW BOX 4: OUTPUT GENERATION ================= -->
  <g id="box-4" transform="translate(774, 75)">
    <!-- Box Background -->
    <rect width="200" height="375" rx="14" fill="#0F172A" fill-opacity="0.9" stroke="url(#card-border-4)" stroke-width="1.3"/>

    <!-- Step Badge & Number -->
    <rect x="14" y="14" width="30" height="20" rx="5" fill="#065F46" fill-opacity="0.3" stroke="#34D399" stroke-width="1"/>
    <text x="21" y="28" fill="#34D399" font-size="10.5" font-weight="800">04</text>
    <text x="52" y="28" fill="#34D399" font-size="11" font-weight="700" letter-spacing="0.8">DELIVERY</text>

    <!-- Card Title -->
    <text x="14" y="58" fill="#F1F5F9" font-size="15" font-weight="700">Output Generation</text>
    <text x="14" y="74" fill="#34D399" font-size="11.5" font-weight="600">Publish-Ready PDF</text>

    <!-- PDF Icon Badge -->
    <g transform="translate(14, 88)">
      <rect width="172" height="60" rx="8" fill="#064E3B" fill-opacity="0.4" stroke="#10B981" stroke-width="1"/>
      <rect x="10" y="12" width="36" height="36" rx="6" fill="#047857"/>
      <text x="15" y="34" fill="#ECFDF5" font-size="12" font-weight="900">PDF</text>
      <text x="54" y="28" fill="#ECFDF5" font-size="12.5" font-weight="700">300 DPI HD PDF</text>
      <text x="54" y="44" fill="#6EE7B7" font-size="10">Multi-page stitched document</text>
    </g>

    <!-- Output Feature List -->
    <g transform="translate(14, 158)">
      <!-- Item 1: Zero Watermark -->
      <g transform="translate(0, 0)">
        <rect width="172" height="42" rx="7" fill="#1E293B" fill-opacity="0.6" stroke="#334155" stroke-width="0.8"/>
        <circle cx="16" cy="21" r="7" fill="#10B981" fill-opacity="0.2"/>
        <text x="12" y="25" fill="#34D399" font-size="11" font-weight="800">✓</text>
        <text x="30" y="17" fill="#F1F5F9" font-size="11" font-weight="600">Zero Watermark</text>
        <text x="30" y="31" fill="#94A3B8" font-size="9.5">No promotional stamp or logo</text>
      </g>

      <!-- Item 2: Free & Unlimited -->
      <g transform="translate(0, 48)">
        <rect width="172" height="42" rx="7" fill="#1E293B" fill-opacity="0.6" stroke="#334155" stroke-width="0.8"/>
        <circle cx="16" cy="21" r="7" fill="#10B981" fill-opacity="0.2"/>
        <text x="12" y="25" fill="#34D399" font-size="11" font-weight="800">∞</text>
        <text x="30" y="17" fill="#F1F5F9" font-size="11" font-weight="600">100% Free &amp; Unlimited</text>
        <text x="30" y="31" fill="#94A3B8" font-size="9.5">No paywall, credit limit or tiers</text>
      </g>

      <!-- Item 3: Print & OCR Ready -->
      <g transform="translate(0, 96)">
        <rect width="172" height="42" rx="7" fill="#1E293B" fill-opacity="0.6" stroke="#334155" stroke-width="0.8"/>
        <circle cx="16" cy="21" r="7" fill="#10B981" fill-opacity="0.2"/>
        <text x="12" y="25" fill="#34D399" font-size="11" font-weight="800">★</text>
        <text x="30" y="17" fill="#F1F5F9" font-size="11" font-weight="600">Print &amp; OCR Ready</text>
        <text x="30" y="31" fill="#94A3B8" font-size="9.5">Optimal B&amp;W text legibility</text>
      </g>
    </g>

    <!-- Bottom Download Button / Status -->
    <rect x="14" y="314" width="172" height="44" rx="8" fill="#059669" fill-opacity="0.2" stroke="#10B981" stroke-width="1"/>
    <text x="30" y="331" fill="#34D399" font-size="11" font-weight="700">⬇ Instant Export</text>
    <text x="30" y="347" fill="#A7F3D0" font-size="9.5">Direct client-side download</text>
  </g>

  <!-- ================= FOOTER / LEGEND ================= -->
  <g id="footer" transform="translate(0, 466)">
    <line x1="26" y1="0" x2="974" y2="0" stroke="#1E293B" stroke-width="1"/>
    
    <circle cx="36" cy="18" r="3" fill="#38BDF8"/>
    <text x="46" y="22" fill="#64748B" font-size="10" font-weight="500">Image Ingestion</text>

    <circle cx="150" cy="18" r="3" fill="#818CF8"/>
    <text x="160" y="22" fill="#64748B" font-size="10" font-weight="500">Geometry Correction</text>

    <circle cx="288" cy="18" r="3" fill="#C084FC"/>
    <text x="298" y="22" fill="#64748B" font-size="10" font-weight="500">Color Normalization &amp; Sharpening</text>

    <circle cx="504" cy="18" r="3" fill="#34D399"/>
    <text x="514" y="22" fill="#64748B" font-size="10" font-weight="500">High-Resolution Vector PDF Output</text>

    <text x="974" y="22" text-anchor="end" fill="#475569" font-size="10" font-weight="600">Apache 2.0 / MIT License • Built for Open Source</text>
  </g>
</svg>
